<?xml version="1.0" standalone="no"?>
<!DOCTYPE svg PUBLIC "-//W3C//DTD SVG 20010904//EN"
 "http://www.w3.org/TR/2001/REC-SVG-20010904/DTD/svg10.dtd">
<svg version="1.0" xmlns="http://www.w3.org/2000/svg"
 width="500.000000pt" height="500.000000pt" viewBox="0 0 500.000000 500.000000"
 preserveAspectRatio="xMidYMid meet">

<g transform="translate(0.000000,500.000000) scale(0.100000,-0.100000)"
fill="#000000" stroke="none">
<path d="M765 4066 c-143 -34 -256 -96 -352 -193 -152 -155 -226 -362 -225
-633 1 -471 261 -741 682 -708 148 11 254 67 335 177 20 29 42 50 49 48 7 -3
10 -35 8 -100 -3 -88 -2 -96 17 -107 22 -11 304 -16 322 -4 24 14 26 63 18
314 -11 306 -30 535 -48 553 -8 8 -63 13 -168 15 -248 6 -265 -3 -209 -111 84
-160 42 -350 -98 -444 -61 -41 -112 -55 -203 -55 -243 1 -366 152 -366 447 1
188 50 325 152 425 79 78 145 103 261 102 165 -1 257 -38 375 -154 44 -43 85
-78 91 -78 26 0 37 38 55 182 24 196 21 209 -65 248 -119 54 -255 82 -421 86
-106 3 -168 0 -210 -10z"/>
<path d="M1794 4071 c-79 -10 -88 -21 -81 -111 22 -275 228 -632 420 -726 31
-15 58 -33 60 -38 2 -6 -2 -72 -9 -146 -7 -74 -16 -212 -20 -306 l-7 -172 29
-18 c41 -27 286 -28 327 -1 27 17 27 19 27 130 0 61 -7 193 -15 292 -20 245
-23 223 33 247 155 67 301 264 386 519 19 57 40 141 46 186 18 134 2 147 -180
147 -134 0 -167 -9 -174 -47 -3 -12 -14 -70 -25 -128 -55 -285 -170 -509 -261
-509 -89 0 -189 200 -256 510 -31 146 -32 148 -52 159 -24 13 -186 21 -248 12z"/>
<path d="M3288 4071 c-42 -4 -73 -12 -84 -22 -18 -19 -31 -106 -63 -429 -32
-313 -51 -593 -58 -830 -7 -257 -12 -245 113 -256 121 -10 211 2 241 33 18 17
23 31 19 46 -3 12 -9 117 -12 232 -7 226 8 528 29 592 26 81 69 28 128 -159
38 -123 111 -304 165 -412 47 -93 102 -136 176 -136 54 0 97 26 136 82 36 53
165 360 197 472 42 143 72 200 101 189 22 -8 34 -68 45 -238 11 -158 7 -593
-6 -627 -4 -11 2 -26 18 -42 30 -29 120 -42 239 -33 90 7 114 17 120 49 11 62
-26 685 -62 1044 -48 467 -36 434 -161 445 -105 10 -274 -5 -306 -27 -32 -20
-42 -45 -112 -286 -118 -401 -178 -533 -229 -502 -47 28 -112 197 -229 589
-56 190 -70 210 -154 219 -107 11 -185 13 -251 7z"/>
<path d="M452 2370 c-42 -3 -79 -12 -87 -21 -16 -16 -30 -220 -45 -694 -15
-464 -13 -780 5 -798 21 -22 287 -30 810 -25 365 3 446 6 460 18 16 13 17 30
11 165 -11 229 -23 336 -39 353 -25 24 -55 4 -98 -63 -101 -161 -225 -212
-487 -203 -187 7 -282 50 -334 152 -51 99 -29 466 52 897 17 85 30 163 30 172
0 9 -10 23 -22 31 -28 17 -158 25 -256 16z"/>
<path d="M2240 2359 c-132 -34 -214 -81 -311 -178 -71 -72 -94 -104 -133 -182
-79 -161 -112 -353 -95 -554 20 -240 119 -415 294 -520 235 -141 665 -135 898
12 117 73 217 224 254 380 28 120 25 368 -6 488 -45 176 -132 323 -244 417
-76 63 -199 123 -292 143 -100 21 -272 18 -365 -6z m312 -285 c176 -62 290
-292 274 -549 -10 -149 -44 -243 -115 -314 -72 -72 -187 -108 -316 -98 -246
18 -366 186 -352 492 16 354 243 563 509 469z"/>
<path d="M3835 2366 c-143 -34 -256 -96 -352 -193 -152 -155 -226 -362 -225
-633 1 -471 261 -741 682 -708 148 11 254 67 335 177 20 29 42 50 49 48 7 -3
10 -35 8 -100 -3 -88 -2 -96 17 -107 22 -11 304 -16 322 -4 24 14 26 63 18
314 -11 306 -30 535 -48 553 -8 8 -63 13 -168 15 -248 6 -265 -3 -209 -111 84
-160 42 -350 -98 -444 -61 -41 -112 -55 -203 -55 -243 1 -366 152 -366 447 1
188 50 325 152 425 79 78 145 103 261 102 165 -1 257 -38 375 -154 44 -43 85
-78 91 -78 26 0 37 38 55 182 24 196 21 209 -65 248 -119 54 -255 82 -421 86
-106 3 -168 0 -210 -10z"/>
</g>
</svg>
