<?xml version="1.0" standalone="no"?>
<!DOCTYPE svg PUBLIC "-//W3C//DTD SVG 20010904//EN"
 "http://www.w3.org/TR/2001/REC-SVG-20010904/DTD/svg10.dtd">
<svg version="1.0" xmlns="http://www.w3.org/2000/svg"
 width="500.000000pt" height="500.000000pt" viewBox="0 0 500.000000 500.000000"
 preserveAspectRatio="xMidYMid meet">

<g transform="translate(0.000000,500.000000) scale(0.100000,-0.100000)"
fill="#000000" stroke="none">
<path d="M3588 2868 c-199 -25 -321 -206 -305 -454 12 -197 122 -306 326 -320
147 -11 285 39 344 124 80 115 87 324 16 463 -70 137 -215 208 -381 187z m138
-158 c76 -37 118 -125 118 -251 1 -144 -65 -219 -194 -219 -118 0 -183 63
-196 186 -22 209 120 357 272 284z"/>
<path d="M468 2857 c-64 -25 -126 -66 -162 -110 -123 -151 -126 -423 -6 -560
105 -119 329 -125 417 -11 14 19 29 32 32 28 3 -3 6 -27 6 -52 l0 -47 85 0 85
0 -1 180 c0 99 -4 197 -8 218 l-7 37 -98 0 c-54 0 -100 -3 -103 -6 -4 -3 3
-26 14 -51 36 -82 15 -164 -56 -217 -22 -17 -42 -21 -101 -21 -86 0 -116 16
-155 86 -20 37 -25 58 -25 124 0 107 23 171 80 224 48 44 90 57 165 48 61 -7
96 -25 150 -77 27 -26 46 -38 52 -32 6 6 15 47 20 92 13 96 7 106 -77 135 -67
23 -256 31 -307 12z"/>
<path d="M984 2858 c-21 -34 14 -171 67 -264 35 -62 96 -127 140 -149 29 -15
31 -20 26 -53 -3 -21 -9 -92 -13 -159 l-7 -122 24 -6 c14 -3 56 -5 94 -3 l70
3 -3 166 -2 167 24 6 c70 17 182 192 208 324 16 84 8 96 -68 100 -96 5 -98 4
-118 -90 -45 -207 -116 -298 -175 -222 -26 33 -57 117 -81 218 -11 44 -25 83
-32 88 -21 13 -146 10 -154 -4z"/>
<path d="M1733 2863 c-15 -6 -19 -29 -38 -213 -26 -255 -38 -520 -24 -536 9
-11 32 -14 93 -12 l81 3 5 222 c4 163 8 225 18 235 17 17 24 5 58 -97 15 -44
44 -117 65 -163 31 -67 44 -85 70 -96 40 -17 81 -5 103 28 21 33 65 138 100
240 17 49 36 91 42 93 23 7 28 -36 31 -240 1 -114 5 -212 8 -217 9 -14 162
-13 171 1 22 37 -30 713 -58 747 -17 20 -181 13 -203 -9 -9 -9 -37 -83 -62
-165 -90 -296 -110 -295 -203 10 -38 127 -49 153 -70 163 -24 12 -162 17 -187
6z"/>
<path d="M2617 2858 c-15 -12 -18 -55 -29 -369 -6 -195 -9 -363 -5 -372 6 -15
37 -17 326 -17 246 0 320 3 323 13 3 6 2 62 -2 123 -9 152 -19 164 -70 89 -42
-61 -96 -87 -190 -93 -91 -5 -150 9 -193 48 -31 27 -32 32 -35 117 -4 83 12
232 40 386 10 58 10 70 -2 77 -22 14 -143 12 -163 -2z"/>
<path d="M4318 2857 c-64 -25 -126 -66 -162 -110 -123 -151 -126 -423 -6 -560
105 -119 329 -125 417 -11 14 19 29 32 32 28 3 -3 6 -27 6 -52 l0 -47 85 0 85
0 -1 180 c0 99 -4 197 -8 218 l-7 37 -98 0 c-54 0 -100 -3 -103 -6 -4 -3 3
-26 14 -51 36 -82 15 -164 -56 -217 -22 -17 -42 -21 -101 -21 -86 0 -116 16
-155 86 -20 37 -25 58 -25 124 0 107 23 171 80 224 48 44 90 57 165 48 61 -7
96 -25 150 -77 27 -26 46 -38 52 -32 6 6 15 47 20 92 13 96 7 106 -77 135 -67
23 -256 31 -307 12z"/>
</g>
</svg>
